<svg width="500px" height="90px" viewBox="0 0 135 24" xml:space="preserve" xmlns="http://www.w3.org/2000/svg" xmlns:svg="http://www.w3.org/2000/svg">
<defs>
<linearGradient gradientTransform="rotate(150, 0.5, 0.5)" x1="50%" y1="0%" x2="50%" y2="100%" id="ffflux-gradient"><stop stop-color="hsl(315, 100%, 72%)" stop-opacity="1" offset="0%"></stop><stop stop-color="hsl(227, 100%, 50%)" stop-opacity="1" offset="100%"></stop></linearGradient> 
<filter id="fecolor"><fecolormatrix type="hueRotate"><animate attributename="values" begin="0s" dur="12s" values="0;360;0" repeatcount="indefinite"/></fecolormatrix></filter>
</defs>
<g id="layer1">
<path id="path1" style="fill:url(#ffflux-gradient);stroke-width:0" filter="url(#fecolor)"
d="M 53.507236,0 44.024901,0.05875513 34.542566,0.1170718 31.756861,11.903177 c -1.532127,6.482355 -2.788675,11.814075 -2.792374,11.84793 -0.0037,0.03386 1.705562,0.03386 3.798447,0 l 3.805115,-0.06182 0.788676,-3.317911 0.788675,-3.31835 2.578089,0.06314 2.578534,0.06271 1.573794,3.25521 1.57335,3.25521 3.638844,0.06182 3.6384,0.06139 0.149376,-0.871681 c 0.133293,-0.778128 -0.01126,-1.172703 -1.344838,-3.672196 -0.821772,-1.540228 -1.494215,-2.861505 -1.494215,-2.936002 0,-0.07446 1.019859,-0.957758 2.266442,-1.963037 1.246582,-1.005269 2.320468,-1.996861 2.386032,-2.203316 0.476655,-1.50096 1.673173,-7.1201873 1.55779,-7.3158922 C 57.168128,4.7165852 56.294126,3.5706854 55.305096,2.3037352 Z M 9.2560455,0.00482318 6.1724754,2.4668389 3.0893497,4.928416 1.5444527,11.541 0,18.153584 l 2.2024232,2.824193 2.2028677,2.823316 h 7.6053401 7.60534 l 2.953309,-2.362044 c 1.624379,-1.299222 3.010381,-2.453053 3.080014,-2.56418 0.06964,-0.111127 0.585575,-2.15479 1.146558,-4.541246 0.560983,-2.386464 1.073904,-4.5664164 1.13989,-4.8442302 l 0.120034,-0.5051184 h -7.155874 -7.155874 l -0.494812,2.1888476 c -0.272131,1.203868 -0.547484,2.416153 -0.612179,2.693967 l -0.117813,0.50512 h 3.457458 3.457013 l -0.158268,0.729615 c -0.217144,1.002606 -0.320848,1.154327 -1.331946,1.945497 l -0.884704,0.692346 H 13.118067 9.1773561 L 8.6069664,17.002158 8.0365773,16.264212 9.0528751,11.925539 C 10.124095,7.3527618 9.999476,7.62095 11.644746,6.3538858 11.906328,6.152428 13.89292,6.0783552 19.187845,6.0732643 l 7.188329,-0.00701 0.388113,-1.7398536 C 26.97765,3.3694792 27.29314,2.0056582 27.465381,1.2956854 l 0.312981,-1.29085758 h -9.26138 z m 57.8147195,0 -2.538077,2.02705222 -2.538077,2.0274908 -0.627295,2.6308269 c -0.344963,1.44714 -0.630437,2.7870866 -0.633964,2.9776582 -0.0035,0.1905802 0.8609,1.4743327 1.920563,2.8526927 l 1.926342,2.506302 5.150843,0.0097 c 3.971725,0.0075 5.207145,0.07728 5.398915,0.305176 0.346264,0.411494 -0.08793,1.878402 -0.642854,2.17131 -0.264819,0.139781 -3.266532,0.227128 -7.80451,0.227128 H 59.30849 l -0.643743,2.750091 c -0.353977,1.512551 -0.689365,2.876372 -0.745552,3.030714 -0.08069,0.221651 1.900842,0.28062 9.427206,0.28062 h 9.52946 l 2.537188,-2.009074 2.537188,-2.009513 0.68909,-2.85708 0.688646,-2.857077 -1.976134,-2.534363 -1.976134,-2.5339258 -5.150399,-0.00789 C 68.524833,8.983851 68.450555,8.9656509 68.705911,7.6140545 68.996083,6.0783404 69.001968,6.0774524 76.890532,6.0715129 l 7.074518,-0.00526 0.643743,-2.7500912 C 84.962767,1.8036111 85.298167,0.43979011 85.354345,0.2854483 85.434999,0.06392446 83.520669,0.00482675 76.263681,0.00482675 Z m 27.998872,0 -3.083573,2.46201572 -3.083125,2.4615771 -1.544892,6.612584 -1.544456,6.612584 2.204645,2.826823 2.20509,2.826385 8.116157,-0.05876 8.116157,-0.05919 0.70288,-2.918463 0.70332,-2.918464 -6.4379,-0.05919 -6.437882,-0.05963 -0.56817,-0.73444 -0.567715,-0.734439 1.016295,-4.338673 c 1.071216,-4.5727767 0.946593,-4.3045886 2.591865,-5.5716528 0.259382,-0.1997608 2.078073,-0.2755306 6.746877,-0.2806215 l 6.39165,-0.00701 0.64374,-2.7500911 c 0.35399,-1.5125501 0.68937,-2.87637101 0.74555,-3.03071282 0.0805,-0.22128626 -1.69709,-0.28062155 -8.40735,-0.28062155 z m 20.042323,0 -0.6313,2.75009122 c -0.34742,1.5125499 -0.6294,2.8225802 -0.62596,2.9110102 0.003,0.08843 1.06298,0.1894544 2.35491,0.2244971 l 2.34913,0.063579 -1.28037,5.3879343 c -0.70419,2.963364 -1.35373,5.665742 -1.44309,6.0053 l -0.16227,0.617368 h -2.37714 -2.3767 l -0.22406,0.841865 c -0.12319,0.463023 -0.38299,1.549028 -0.5775,2.413345 -0.19451,0.864309 -0.40702,1.798786 -0.47215,2.0766 l -0.11825,0.505119 h 8.63542 8.63497 l 0.49259,-2.188848 c 0.27083,-1.203868 0.57837,-2.517178 0.68331,-2.918464 l 0.19072,-0.729617 h -2.3718 c -1.74663,0 -2.3713,-0.07395 -2.36958,-0.280621 0.002,-0.222475 1.00219,-4.556345 2.61587,-11.329657 0.11206,-0.4703539 0.25156,-0.5010002 2.55808,-0.5612432 l 2.43984,-0.063579 0.62462,-2.5817182 c 0.34337,-1.4199446 0.62696,-2.70799805 0.63041,-2.86233986 0.005,-0.21964868 -1.86053,-0.28062156 -8.58652,-0.28062156 z M 44.66909,6.1153575 c 3.751281,-0.0597 3.999142,-0.03777 4.351942,0.388047 0.342435,0.4133012 0.344523,0.570983 0.02534,1.8595562 -0.206158,0.8322874 -0.585725,1.6598633 -0.928717,2.0248603 l -0.580169,0.617367 h -3.940707 c -3.005075,0 -3.939088,-0.06663 -3.933152,-0.280621 0.0043,-0.154341 0.237061,-1.2403466 0.517484,-2.4133459 l 0.509928,-2.1327237 z" />
</g>
</svg>
